
<global>
amp_veltrack=0
</global>

<group>
amp_veltrack=11.0000
ampeg_decay=20
ampeg_release=0.35
ampeg_sustain=0
group_label=Group_0-45
lpc_hicc1=42
lpc_locc1=0

<region>
hikey=a#4
hivel=127
lokey=a4
lovel=1
lpc=/LskQmnat8JIe4VCPquMwURUf0BavKU/XKCjQL8LR8GyZeNAu5ohwdZUBkEGDsO/QcqrQHGg0MAULJlANaOUwIpLCkDmNuG/sbOjQKPdU8Bp0ZQ9GewtP9euO8Br+0RA
lpc_rms=-26.70
offset=660
pitch_keycenter=a#4
sample=Flute_invertedmordent_semitone_PP_A#4.opus
tune=-7
</region>

<region>
hikey=a#5
hivel=127
lokey=a5
lovel=1
lpc=s3+8QWo9/8HYAj5B04RJvljEzj8IdAtAs2JDv7z/HUB6zDzAGt+0v7mZD0Antrs+QTiQQAmlKMDgQLY+8h71vz28HD/4T6w/TPKWQJLNKMDhG3A+PfWDv9HImT+HV/e/
lpc_rms=-24.01
offset=1761
pitch_keycenter=a#5
sample=Flute_invertedmordent_semitone_PP_A#5.opus
tune=-12
</region>

<region>
hikey=c5
hivel=127
lokey=b4
lovel=1
lpc=Xi7yQUM/esIkshpC70yawN9Ui8A8zxVBwyweP7X8OsH//+pAdC6mwO/RNEAoxwc/jRGoQAuC7cB+kbdAo3VZwLvsML4fPv++EbaOQOKJoMDy15U/ugWLP6vW17+yVQhA
lpc_rms=-27.11
offset=896
pitch_keycenter=c5
sample=Flute_invertedmordent_semitone_PP_C5.opus
tune=-26
</region>

<region>
hikey=c6
hivel=127
lokey=b5
lovel=1
lpc=/7V/QTnUY8HNOoo/yEmNQKLnJsA7FaQ/CFA5PwzfNsCRKUlA3B8RwGdj+j8KsMK/ENl7P2kipj7MaVa/XKIaP7NWQ78ZUKg/JaYKvzhlPj/tFCM9cvs+wC75mcBJWwVA
lpc_rms=-27.78
offset=2348
pitch_keycenter=c6
sample=Flute_invertedmordent_semitone_PP_C6.opus
tune=-26
</region>

<region>
hikey=d4
hivel=127
lokey=C4
lovel=1
lpc=dNJyQl1fFMP4/ttCOKGBwUmNiD9lgB7BtmlQP8tnWkBfRhS/qaRJv4Sbib9IMeQ/hlwgPsOoNsCt+PU/+pDEv5LpPUDaJ7c+O51/P/qpKcBAZTI/dIPtvzWG6b4URfA/
lpc_rms=-29.29
offset=832
pitch_keycenter=d4
sample=Flute_invertedmordent_semitone_PP_D4.opus
tune=+6
</region>

<region>
hikey=d5
hivel=127
lokey=c#5
lovel=1
lpc=gyLdQY9KV8JfwPZBZRXvwDxgI0ADpSlBlU+EwD6Fm8C3qJ6/S1GuwJmpzkCOcLE+/Sj8QA5Y18A1/1o/JP2jwPTJaT77XJdA7FQEQDawEr/YtFU+/3VBwFdyMMDCUJNA
lpc_rms=-25.64
offset=3488
pitch_keycenter=d5
sample=Flute_invertedmordent_semitone_PP_D5.opus
tune=-5
</region>

<region>
hikey=d6
hivel=127
lokey=c#6
lovel=1
lpc=gDW5QTC3ssHrscq/naz9QEA7o8DhTIxAmvT4P4KkKsD7OBZAXMsLv4zINEDNBg6/H1ScP7KVI78lhes+7/o2QP28+77zDSw/7a5vPwGE+L/rxiTBpq2gQFqoJ0GE7I/A
lpc_rms=-22.54
offset=1715
pitch_keycenter=d6
sample=Flute_invertedmordent_semitone_PP_D6.opus
tune=-12
</region>

<region>
hikey=e4
hivel=127
lokey=d#4
lovel=1
lpc=W1KhQnYVU8OEdTNDyOs1wuJaoEDyfnLBT8sTQeBEDkCeQhTB7aNYvoYQfD/PhxZBnSg5vxauk8Avo8k/6mKZwKNXsUChHIbAoO4ywFRKk0Akcps/6q62QOAXQMHes6tA
lpc_rms=-25.13
offset=1887
pitch_keycenter=e4
sample=Flute_invertedmordent_semitone_PP_E4.opus
tune=+5
</region>

<region>
hikey=e5
hivel=127
lokey=d#5
lovel=1
lpc=nZATQkWDa8JhcN5BZB+kwJzVSMBmRVZBu2bMv0RtsMAOqPZAGgUrwesy+0A+uIzAB+/RQPib8sDtsJdAMjkGwJ7Hk0C+FKA/TZ9tQPRmvMDFJcW/7ZcnwIRuV0C2f5JA
lpc_rms=-24.10
offset=1452
pitch_keycenter=e5
sample=Flute_invertedmordent_semitone_PP_E5.opus
tune=+3
</region>

<region>
hikey=e6
hivel=127
lokey=d#6
lovel=1
lpc=JeXSQcOWvsECCi3A20YyQL0o7b8BdgtBYiWiPutarL9y+UY/RdsSwN1ImUCjKTPA9EtcPpaoq78fCA1A6J6GvzbBPkDhQPTA4rUtwf7cuEAP4zFBEF8pwHhdkD8KVPvA
lpc_rms=-23.37
offset=12831
pitch_keycenter=e6
sample=Flute_invertedmordent_semitone_PP_E6.opus
tune=-15
</region>

<region>
hikey=f#4
hivel=127
lokey=f4
lovel=1
lpc=NnM8QsqBAMPiwfBCvAEuwn5+T0FhPlLB/FIkQfdPOcFuXgFBJemYwEe9yEDIKHu/ZUxSwCzFUb+skZ8/E4oKwIFk70A9eaPAl4uNv1hMYEDLE+a/W6yxP2uIesBsxiJA
lpc_rms=-27.73
offset=952
pitch_keycenter=f#4
sample=Flute_invertedmordent_semitone_PP_F#4.opus
</region>

<region>
hikey=f#5
hivel=127
lokey=f5
lovel=1
lpc=WqE6Qg6yj8Iny/hBqMG+wLmhIEFIzgZB4em5wK9PmMAXq4S/1SsfvhdjAkGeogNAkWaZQB+uH8GAR1hAXt6kwC4aUUCNxjJB6OoewHRDLLz+lDbAMG46wI2QtUAwY0hA
lpc_rms=-21.48
offset=1918
pitch_keycenter=f#5
sample=Flute_invertedmordent_semitone_PP_F#5.opus
tune=-5
</region>

<region>
hikey=f#6
hivel=127
lokey=f6
lovel=1
lpc=4qPUQXGBX8FbJRbBK/VdQDtJKMDjKaBALGPeQBd73L8yEVFAsakcwC173j+6g1u/MaQxP7CRSD7C1hxAR+zCwB69gMGyo6VAlzMiQX8BoT/VjFi/fVZXwPP8osDiUrG/
lpc_rms=-21.30
offset=1173
pitch_keycenter=f#6
sample=Flute_invertedmordent_semitone_PP_F#6.opus
tune=-16
</region>

<region>
hikey=g#4
hivel=127
lokey=g4
lovel=1
lpc=HNc3QrLX6cKdG8pCMIsGwvoZIEGdrxvBjmU/Qa6qM8FtM48/f2aDwJhTO0E0BMvAvMoVQGBI7b+3MF0+7eMewEUDj0DRZRnAd/oPQMxCHcDEnZU/8LM+PyKJUMBiFiZA
lpc_rms=-26.20
offset=1649
pitch_keycenter=g#4
sample=Flute_invertedmordent_semitone_PP_G#4.opus
tune=+4
</region>

<region>
hikey=g#5
hivel=127
lokey=g5
lovel=1
lpc=41/lQUGYBsIyDbRA92qYvw3GtEBhgohARefNP0n6HcA6506+CD1AwKms/z9ZWPE97QoVQDknfz9sG2BA5oN+v35mQMDx8n+/Xn7HP/RDST9DnZBAnLSRv/PGU0AdEJTA
lpc_rms=-23.12
offset=1661
pitch_keycenter=g#5
sample=Flute_invertedmordent_semitone_PP_G#5.opus
tune=-14
</region>

<region>
hikey=A#6
hivel=127
lokey=g6
lovel=1
lpc=DFQpQoSQl8GOgZTBaC9OQLBgiEAzbyhBdZGmQLclM0ABjfVAd7ARwZlrgUCLz4jAEWDLQP5LtsDbmKjBV9xOwHRdZ0FPlRdBUZSbwEd1EMH4IMfAykCVwNd6AsDYfSNA
lpc_rms=-16.40
offset=1345
pitch_keycenter=g#6
sample=Flute_invertedmordent_semitone_PP_G#6.opus
tune=-25
</region>
</group>

<group>
amp_veltrack=11.0000
ampeg_decay=20
ampeg_release=0.35
ampeg_sustain=0
group_label=Group_46-90
lpc_hicc1=84
lpc_locc1=43

<region>
hikey=a#4
hivel=127
lokey=a4
lovel=1
lpc=YJHkQX1CmsKrGJ5CBgkowowLtkHp727BFyD+QGrpy8DMGIw/z5zEP96fs0A2ymXBo7t+QayK+sDb8m9A+GXwwP1ttkB4wHnA7FsGQduA/cAdi0lAw7PnPQqTw79Lrag/
lpc_rms=-20.22
offset=1477
pitch_keycenter=a#4
sample=Flute_invertedmordent_semitone_MF_A#4.opus
</region>

<region>
hikey=a#5
hivel=127
lokey=a5
lovel=1
lpc=JN3bQSJxS8LihAdCqYIKwUv+9b7tazdBTRICwRn+TEC6L26/S5gCwNljOEDjazxADrUVQNjfpr+ZGEG9gHCOwKNAuEA8/ks/E8w8QMOz0L/+8SVA50N3wH7G1b8gn55A
lpc_rms=-12.55
offset=999
pitch_keycenter=a#5
sample=Flute_invertedmordent_semitone_MF_A#5.opus
tune=-14
</region>

<region>
hikey=c5
hivel=127
lokey=b4
lovel=1
lpc=nF+iQX6+Q8LSljJCi9TDwVhIikGHMBPBEiw3vIc6Ir/TzwNA8P6PvyG+mUD75QzBPiApQWfEGcFNvfBAZjrCwP1gnkCXpcjARG4LQTqDs8AND6E/v3HBvxZJOz9EynE/
lpc_rms=-20.27
offset=1411
pitch_keycenter=c5
sample=Flute_invertedmordent_semitone_MF_C5.opus
tune=+6
</region>

<region>
hikey=c6
hivel=127
lokey=b5
lovel=1
lpc=qQ8AQn1wwsFqWuhAm+NUQIZyvL/Yk7tA27SSv5E55D8ZlNs/py4yP+6WJD+1jHZAM0uMQLlbtMA8L7lAePSXPf+rBUCJNKM/K9U/QBfEGL89tgxAR4BgQL/9i8Hh9KdA
lpc_rms=-15.56
offset=491
pitch_keycenter=c6
sample=Flute_invertedmordent_semitone_MF_C6.opus
tune=-15
</region>

<region>
hikey=d4
hivel=127
lokey=C4
lovel=1
lpc=5sWuQbPrZsLeA2pCAdb/wWOeXkEH7YjAwTaYQBNoJcEWReFAkI2EwAMPhEDlBh3AOIDsQA4lK8GjvLpAkGhrwAHFEkApWRi++TuCQGHa18BgvZJAdtziv39liL/E3qA/
lpc_rms=-25.16
offset=4212
pitch_keycenter=d4
sample=Flute_invertedmordent_semitone_MF_D4.opus
tune=-2
</region>

<region>
hikey=d5
hivel=127
lokey=c#5
lovel=1
lpc=aA7FQYiCY8IC9D9CniKfwe8CfkAxu/9AA+O+wI6XPMCDPWFA9sTAwEZEI0Gs1zXBEX1aQdFG8cBrhYi/ooFOQIJFVsChHp8/YtBhv7e8o0D7hFHARd7LP4Mos8DYLJVA
lpc_rms=-19.68
offset=1586
pitch_keycenter=d5
sample=Flute_invertedmordent_semitone_MF_D5.opus
tune=-6
</region>

<region>
hikey=d6
hivel=127
lokey=c#6
lovel=1
lpc=G8dlQT6WXsEJjHs/UsNTQNlPqL9AT7M/8Po1P4LLMTuxa8k/+DcjvyQH5j/R3xa+mI7IP8vk5r4nNUY/bOybP1od07yRoYM/w+ENPzwF1T1i4QDBeMN1QJnOukAi4wvA
lpc_rms=-20.08
offset=770
pitch_keycenter=d6
sample=Flute_invertedmordent_semitone_MF_D6.opus
tune=-13
</region>

<region>
hikey=e4
hivel=127
lokey=d#4
lovel=1
lpc=MkgjQuwH48IUV+xC/Zh4wmoCrUHShwtBV++9wQdTJkF7fhi/kYBDwMa0FUFNgynB009iQX4IisG1KWRB1s8Iwc8YyT7tyo5A5+ldwMUHV0AHxyzANZfovihGvD/V5u6+
lpc_rms=-21.64
offset=2141
pitch_keycenter=e4
sample=Flute_invertedmordent_semitone_MF_E4.opus
</region>

<region>
hikey=e5
hivel=127
lokey=d#5
lovel=1
lpc=ORwqQg1sk8IcjRhCEjfNvqCniEDPQRHBBxLPQHFMDsGiKYhBfNcFwUB2HUAwJyjBZ59AQevmCcHzCRFBoh0BwBPb7r4d5z9AKpJhwKjRvUAALzu/YVP3v+kIBMErrzVB
lpc_rms=-15.79
offset=6930
pitch_keycenter=e5
sample=Flute_invertedmordent_semitone_MF_E5.opus
tune=-4
</region>

<region>
hikey=e6
hivel=127
lokey=d#6
lovel=1
lpc=g7+TQa3HScF/A6c/x8MoQOsxjD/rIRNA34kbQN3fMkABIgJA5sAlQPVjXkBlddk/vvsyQKAGMkBJcfM/ByJZQDgjT0DeE8y/1Hj+wAsE40COkrNAaqA1v4c+Fj/VXH4/
lpc_rms=-19.50
offset=9055
pitch_keycenter=e6
sample=Flute_invertedmordent_semitone_MF_E6.opus
tune=-20
</region>

<region>
hikey=f#4
hivel=127
lokey=f4
lovel=1
lpc=fTHCQa4igMIO8HdC0o7iwYseL0Hc78bAe7GBQKBotcAiVrpAg+GRwBDrOUALBEjA+CHLQH1u2cD7sOFAqbQSwePRv0BT4oK+LrWgP9ujuMB6f9RAgeO6wGtIrEAhuBzA
lpc_rms=-22.26
offset=1474
pitch_keycenter=f#4
sample=Flute_invertedmordent_semitone_MF_F#4.opus
tune=-2
</region>

<region>
hikey=f#5
hivel=127
lokey=f5
lovel=1
lpc=kMCsQTJUE8IpeKBBtP2CQIQ57cAEIZ1ALiYwvwRmd7/Z+vI/kq1Nv920FUDDsSnArJSiQE4dj8BZ8p5AxTYbwA2c0L82Za9AsOSGv98FBcA3sHtAFiSWv+kuYsBEeLtA
lpc_rms=-17.16
offset=1037
pitch_keycenter=f#5
sample=Flute_invertedmordent_semitone_MF_F#5.opus
tune=-4
</region>

<region>
hikey=f#6
hivel=127
lokey=f6
lovel=1
lpc=CQT6QRBGmsGZQ/W/tJbIQFxUiT4s/NNA6nSSQOfz4EAS2t4/TS+hQLL8jkBHZ9A/8m39QFc5Q79CkCVBL/CxwEZ7a8G62D1BKy1AQX0tcMB9oi5Arp4bv4H/JMCt1E6/
lpc_rms=-11.66
offset=915
pitch_keycenter=f#6
sample=Flute_invertedmordent_semitone_MF_F#6.opus
tune=-24
</region>

<region>
hikey=g#4
hivel=127
lokey=g4
lovel=1
lpc=kYUFQl+fs8KdPa1C+KsUwgUyBUFRgg9BVrmJwV697ECAtIY9vPTKv47CNUAGhu6/tNRQQFWswMAhVOJAPg0UwbutLkEl1fTAU2qTQFCqq8B/iaNAfIBlv1icQ8CjKQJA
lpc_rms=-19.01
offset=1382
pitch_keycenter=g#4
sample=Flute_invertedmordent_semitone_MF_G#4.opus
tune=+9
</region>

<region>
hikey=g#5
hivel=127
lokey=g5
lovel=1
lpc=9YqtQfOc/8EemUZBz75yQBBjDsBTuVxAPhpgP3cXgsDp+Lo/6gODPgorP0C2gt4+x/AzPhvED8AD7Yo/r5GEP4GD8T/IY4w/vth+vpj2MsCzuq4/AH+EP0ONuUCVm4jA
lpc_rms=-17.42
offset=10175
pitch_keycenter=g#5
sample=Flute_invertedmordent_semitone_MF_G#5.opus
tune=+4
</region>

<region>
hikey=A#6
hivel=127
lokey=g6
lovel=1
lpc=ZUIMQpM6fcFWFkI8+RTiQI5cQMDfwgNAfgrDQK94S0FLOMFA1sm9vu4KaEDreQI/yySEQDagpL9CHJrBoecNwJmJTEGlu8rAyxp0QFKoaj3vC+2/QE4Wwezc3MCHVN4/
lpc_rms=-10.61
offset=737
pitch_keycenter=g#6
sample=Flute_invertedmordent_semitone_MF_G#6.opus
tune=-30
</region>
</group>

<group>
amp_veltrack=11.0000
ampeg_decay=20
ampeg_release=0.35
ampeg_sustain=0
group_label=Group_91-127
lpc_hicc1=127
lpc_locc1=85

<region>
hikey=a#4
hivel=127
lokey=a4
lovel=1
lpc=MfGGQetdJ8JEwRRCBLZLwZUYGDuXhgxAhBEiPzyffMDbkqY//XTqvvv2hUDzUJLAPTquQP30AMEETfVAAj7GwL5UrUBf0V3ArBbrP7lHOz0xPxLA3pYjQAzgB8C4cZY/
lpc_rms=-17.77
offset=963
pitch_keycenter=a#4
sample=Flute_invertedmordent_semitone_FF_A#4.opus
tune=-7
</region>

<region>
hikey=a#5
hivel=127
lokey=a5
lovel=1
lpc=oTnDQT4y98GnDWVBhnNSvvIlLsC23ulAHJx6wE7sOUAFQYI9qngRwG3TmUBIj6nAq/4aQSccEcBUxqC/2IwSv7jUD0AL+1e/xa2KQGbw0L/OOTtAwRDvv9Z2OEBGoXrA
lpc_rms=-10.61
offset=959
pitch_keycenter=a#5
sample=Flute_invertedmordent_semitone_FF_A#5.opus
tune=-16
</region>

<region>
hikey=a#6
hivel=127
lokey=a6
lovel=1
lpc=Jl5AQq0oCMKwJR9Bbz38QE3W7b3oLUpBEbHKQJMXEkE7QxVBpSmnwJ5NT0FUTKxA7+hWweXxjcFE08FBlUclP8eUysAHnmtATbWkwLgctsC1ZxHAUzunvmU4M0DXWTfA
lpc_rms=-8.46
offset=1769
pitch_keycenter=A#6
sample=Flute_invertedmordent_semitone_FF_A#6.opus
tune=-18
</region>

<region>
hikey=c5
hivel=127
lokey=b4
lovel=1
lpc=/pA5Qf5618H4oLBB7eHPwAMg7T8A5uG/5T2uvxQXTkD4vY+/NDf9vsHoWcC5YwVBCOaOwL79qr9Km0i97OxdQFgVHcDH4pG/gi6KPzVA3z82bhI+XIFkwBLdKkAmwRS/
lpc_rms=-20.53
offset=788
pitch_keycenter=c5
sample=Flute_invertedmordent_semitone_FF_C5.opus
tune=-10
</region>

<region>
hikey=c6
hivel=127
lokey=b5
lovel=1
lpc=fWDOQcMD+MF0Qy1BGTQCQKZntcBdUQpBKJWzwOh8ikAWzoK/mi7wvU2ckz9Ktd4/MT/EP15fJ8AOQLY/C9h5P+w9E0A2IhvAH62XQHSTlMBQLbhA17L4vwRLecEdoE5B
lpc_rms=-12.98
offset=384
pitch_keycenter=c6
sample=Flute_invertedmordent_semitone_FF_C6.opus
tune=-26
</region>

<region>
hikey=d4
hivel=127
lokey=C4
lovel=1
lpc=USfBQTQifMIoH3RC9PzpwTtu70AvzvNAOf41wWsrfEA1NKS/brkWv0dCYkAGRXTAuEPwQGEDD8HaSptAqMmTwA8chUBFOEC/64gGQJf6H8C/YHC+tFuUPyR+yr/R5IY/
lpc_rms=-23.43
offset=1121
pitch_keycenter=d4
sample=Flute_invertedmordent_semitone_FF_D4.opus
tune=-5
</region>

<region>
hikey=d5
hivel=127
lokey=c#5
lovel=1
lpc=S28yQeWZusGNyopBnXSpwE1SpT8Pt4u+fMAOPXfjKT62YOI+qP4iwMSAOUDG5Rq/PDRPQDKjBMHV8PFA0R/+v2CT1L/0Ams/et2IP7RdhD6BUna/lFqavpBGEb/EHLA/
lpc_rms=-21.07
offset=6774
pitch_keycenter=d5
sample=Flute_invertedmordent_semitone_FF_D5.opus
tune=-12
</region>

<region>
hikey=d6
hivel=127
lokey=c#6
lovel=1
lpc=j/vdQf8M4MFvYy1Au5fhQAoXG0CRHrg/h1AYQNT/Gb9k0GJA5sDMP+YOpkDN/8o+sel8wIs8B0FSo54/ZjIKQHb3wL6WT0VA+YK6P40Krz8MN2LB/YwvQeSmAEH6eo3A
lpc_rms=-10.43
offset=1328
pitch_keycenter=d6
sample=Flute_invertedmordent_semitone_FF_D6.opus
tune=-17
</region>

<region>
hikey=e4
hivel=127
lokey=d#4
lovel=1
lpc=kkfsQVNRlML/nIFCSkfawejImUEt41fBvQl+Py3ES8AwiONAUW6iwLKjqECHqOPAa1CoQBYIpL9r+0xAVZi+wPqDo0D7qYnAkv5cQE1+dsBPWIxAEIiYPhGBQsCyl2k/
lpc_rms=-20.86
offset=8048
pitch_keycenter=e4
sample=Flute_invertedmordent_semitone_FF_E4.opus
tune=-7
</region>

<region>
hikey=e5
hivel=127
lokey=d#5
lovel=1
lpc=wCCJQfOL9MFRl49BO1qXwNTDP0D4yqQ/1C/evyhB0j5+GQA8lCnzv6uwOECIEArAhilnQIDff8B+bXFAYb2RwJ5pU0AEbipAvoHnv7TNRD+iKSXAEQ+AP7anuD24NM0/
lpc_rms=-19.08
offset=1377
pitch_keycenter=e5
sample=Flute_invertedmordent_semitone_FF_E5.opus
tune=-8
</region>

<region>
hikey=e6
hivel=127
lokey=d#6
lovel=1
lpc=kl3vQSe/ycH96olA+CDsv5vuwkBZ+AlA1rkmQEyQGkDQJA5ANuW6vkenwT8YopBAVf4DwARlTkCJVj5A6G5rvordgED2KgjBUCRXwTepk0FuGO48oZ10P0JlCcAhAjXA
lpc_rms=-9.30
offset=826
pitch_keycenter=e6
sample=Flute_invertedmordent_semitone_FF_E6.opus
tune=-36
</region>

<region>
hikey=f#4
hivel=127
lokey=f4
lovel=1
lpc=kkbjQYTgi8Lq5k5C1icIwDXQwMBz2xLAWR4eQIwgDsGR1j1BpT78wC2ABkE5/hbBFQ4WQbAwCsGl3qRAuLMcwOF5+D/8y4y+sg8fP/huoMCU4axAXOjFv1CeVj9w/FS/
lpc_rms=-18.54
offset=6980
pitch_keycenter=f#4
sample=Flute_invertedmordent_semitone_FF_F#4.opus
tune=-9
</region>

<region>
hikey=f#5
hivel=127
lokey=f5
lovel=1
lpc=uYRWQQeTocHWlSVB0loMPwdz+r+A1QhAdc9Hvwfo+j9t6dC/DQv7Pyrgg74ve2o+Jrugvo6W5r8JLaZA+ovuv64rgz9CSwk/+Phyv4l4c7/bBUNAaw1HPu/2N8C0C3RA
lpc_rms=-18.17
offset=1628
pitch_keycenter=f#5
sample=Flute_invertedmordent_semitone_FF_F#5.opus
tune=-13
</region>

<region>
hikey=f#6
hivel=127
lokey=f6
lovel=1
lpc=cSjoQSXkr8GxfqpA/bUzQPO9SECmesZAU9Plvkhxr0AtyKxAAp14QHjTj0Btxme+hG8XQaJ4C8Cn1BpBooecwD9Ad8F0yZNB/uruP/s2y76Jdwc/RNBLwNH42kCoeK7A
lpc_rms=-13.19
offset=1674
pitch_keycenter=f#6
sample=Flute_invertedmordent_semitone_FF_F#6.opus
tune=-30
</region>

<region>
hikey=g#4
hivel=127
lokey=g4
lovel=1
lpc=G2iRQQN2MsJvLBxCfpKAwY1RuEDmgAZAdGz1wKzBlECb3nDAgdE7QHCfCUDN3jLAf0AjQJQKs8AtJ69AhaRUwDMaPED/Ek6/35M/v/nHbL/ywV0/Ia4RQHJdacD0IdA/
lpc_rms=-20.62
offset=2510
pitch_keycenter=g#4
sample=Flute_invertedmordent_semitone_FF_G#4.opus
</region>

<region>
hikey=g#5
hivel=127
lokey=g5
lovel=1
lpc=2ZplQfK7iMFBrBhBNQ3AvtrLuT30RyRAEcXVvgmfjz8Xag9AN6j5vtpWh73ftfc/5FwNQLdRgL4TfQi/l0QqQLaD6z+Seze/5tzaPuwo6z9LMn0/C2CIP486j79m+4JA
lpc_rms=-17.52
offset=742
pitch_keycenter=g#5
sample=Flute_invertedmordent_semitone_FF_G#5.opus
tune=-11
</region>

<region>
hikey=g#6
hivel=127
lokey=g6
lovel=1
lpc=kCnYQRs8YsEZhjdAKZqHQH7DTj+lZFhA5murQMZZUUGd3btA2aFjPzbKvEAQR0lAEX7dQCtnHEC47WTBInPkQE6OIUFSmA7AATybQKGI5j9BAo2/Guu0wMkdg8D1F5xA
lpc_rms=-13.71
offset=971
pitch_keycenter=g#6
sample=Flute_invertedmordent_semitone_FF_G#6.opus
tune=-36
</region>
</group>

<group>
amp_veltrack=0
ampeg_attack=2
ampeg_release=0.35
group_label=PP
lpc_hicc1=42
lpc_locc1=0
volume=-4

<region>
hikey=D4
hivel=127
lokey=C4
loop_end=253738
loop_mode=loop_continuous
loop_start=107185
loop_xfade=18648
lovel=0
lpc=UUCZQuz7RcMH8BxDvxLOwdFrHEGXZ9rBhTnTPqwLMkB3hyBBgMCgwASj/z/rt/bAvxIKQbI/LcALspk+7k02wDFvBUCt1C6/jeU2QBeYGcArKxxApSrbv3tiVcDb90hA
lpc_rms=-27.53
pitch_keycenter=D4
sample=Flute_sustain_PP_D4.opus
tune=-1
</region>

<region>
hivel=127
key=D#4
loop_end=254855
loop_mode=loop_continuous
loop_start=107657
loop_xfade=18730
lovel=0
lpc=9ZJCQoBb/MI+g9lC0TP1wRalqEDbcgHBgVBAv5/iVEBCDwhAQi9mwErdtz8DjYO/q0z8P8mZd8A+LtRA24OwwFq8mUDnSnHAnDAVQO89L8BsABtAheApwBY4LT/KDWs/
lpc_rms=-30.83
sample=Flute_sustain_PP_D#4.opus
</region>

<region>
hivel=127
key=E4
loop_end=259726
loop_mode=loop_continuous
loop_start=109715
loop_xfade=19088
lovel=0
lpc=D+t3Qh5JJMO+zw5DuRshwtWhG0FrATfBvuDqvyIFlr/2/MxAfwA2P8znmD8F9NDAyMNkQCP9b8Bak5BAgzHTv4dIDEBkcJu/xd+0PgJ5DMDb1uA/6tYaQJJq4sD0YopA
lpc_rms=-28.73
offset=10314
sample=Flute_sustain_PP_E4.opus
</region>

<region>
hivel=127
key=F4
loop_end=256707
loop_mode=loop_continuous
loop_start=108440
loop_xfade=18866
lovel=0
lpc=wuduQnvjI8MTmhdDay5SwgTRpUFcP53BW3aGPxwdOMBsuklBddcdwUKapkDffUfA9RqSQGW41MCAnK5A/CG+v77BTj9sLrvAMU7YQALiy7/Nume/+EOtQJ3TI8G6DKtA
lpc_rms=-28.20
sample=Flute_sustain_PP_F4.opus
tune=-1
</region>

<region>
hivel=127
key=F#4
loop_end=254525
loop_mode=loop_continuous
loop_start=107518
loop_xfade=18706
lovel=0
lpc=PxKhQs6sXsPbh09DiBqPwpBQo0HQBYDBU6SLv/gVi79YBxNBLqagwJEchj28Hn3A6EDhQEUi7cBriCBB/y0GwZKOq0CVQ63A12NAQBJJkb5ESR9AqhULQWFtuMHJzUVB
lpc_rms=-25.41
sample=Flute_sustain_PP_F#4.opus
</region>

<region>
hivel=127
key=G4
loop_end=268782
loop_mode=loop_continuous
loop_start=113540
loop_xfade=19754
lovel=0
lpc=T1WQQvL7QcPygTBD7bqJwinrIUJp5t7BNBNvwFHOiUDoWEVAmef4wKCi80Dmo+i/6GmkQB8XysBsmjRAkq1TwN5BdECUq1vAUFHyP2ekCz5dn0tAHDeUwC3AGL/A8xJA
lpc_rms=-25.77
offset=13041
sample=Flute_sustain_PP_G4.opus
tune=+1
</region>

<region>
hivel=127
key=G#4
loop_end=252778
loop_mode=loop_continuous
loop_start=106780
loop_xfade=18578
lovel=0
lpc=ljWHQg9KNcMwpiNDCyw8wry5AEHnS2vBxL9rwN37y0DQ1u9AP0sdwSoOvkAOd66/t/NSQBMvF8EoLSBBFRsgwZ5ASUFEHRbB3zydP2Khhz/r/lhAVl40P1ncGsGJmtBA
lpc_rms=-24.34
sample=Flute_sustain_PP_G#4.opus
</region>

<region>
hivel=127
key=A4
loop_end=259486
loop_mode=loop_continuous
loop_start=109613
loop_xfade=19071
lovel=0
lpc=hOafQoQAVMN6LDRDHrVewjpbNEK7MyTClHAPP9xEdME8pd5BhtqgwftFrUEl9TPBn0LoQBGREsGpr1ZA77qFwP1kG0EtrRnBBXqzPvQChT9XAwJBZrHLQNfLzMENxmFB
lpc_rms=-21.10
sample=Flute_sustain_PP_A4.opus
tune=+1
</region>

<region>
hivel=127
key=A#4
loop_end=246927
loop_mode=loop_continuous
loop_start=104308
loop_xfade=18148
lovel=0
lpc=R8pDQvsR+MLGrM9CzCIPwmF5iUGwuHZAI7etwSchy0Buq57AHXytQHJtD0F9JePAX9lMQBqWD8GRIQlBO6y5wGzdpkDixkDAytQBQHTSbsB+1XpAaKNqQBQ2KMFMJ79A
lpc_rms=-24.84
sample=Flute_sustain_PP_A#4.opus
tune=+1
</region>

<region>
hivel=127
key=B4
loop_end=252853
loop_mode=loop_continuous
loop_start=106811
loop_xfade=18583
lovel=0
lpc=RJkFQiNboMKjy4BC/cDuwUDD0EF1rt3As0HDwJKOTsA3LZm/AYPePnfCxUBQuJy/V79WQGOiCcE/QdhAZo6rwCnzwkBz55fAcdTOP8J96L9hZu0/9mN0QGfCucAt8hRA
lpc_rms=-28.32
sample=Flute_sustain_PP_B4.opus
tune=-1
</region>

<region>
hivel=127
key=C5
loop_end=247957
loop_mode=loop_continuous
loop_start=104743
loop_xfade=18223
lovel=0
lpc=TcPoQaARgML9NCpCdjI0wS/2LEFMjck//gcZwXx/gcB2GHlAebOXP/4ulUArHT3Ad381PneMjsBtpqpAriVZwBkWQ0AIm2i/yxIVQJnV7MBgS7lA3rF4P80SjcCOejpA
lpc_rms=-28.24
sample=Flute_sustain_PP_C5.opus
</region>

<region>
hivel=127
key=C#5
loop_end=247349
loop_mode=loop_continuous
loop_start=104486
loop_xfade=18179
lovel=0
lpc=jE25QearOMKGB8xBHFc1wMtVb0AHrUhAZKZnwLIvocB1/xlA21EOwKcWxkAjmGbAudQVQMLvJsADK6Q/707Hv05Wvz/LmTM/IosJv8nQKb4UNpM/V7lCP7YwccA0+yxA
lpc_rms=-30.73
sample=Flute_sustain_PP_C#5.opus
tune=+2
</region>

<region>
hivel=127
key=D5
loop_end=241107
loop_mode=loop_continuous
loop_start=101849
loop_xfade=17720
lovel=0
lpc=k+IyQg9LqcLI7QNCocxUQVGxXkA9TYq+CprSwBh7ssD2JhBBLT8Vwd/3pUBebA3AQWVAQRleLsFPMGJArFIMwET72r+Nv8M/0xGAQMG9Sb9/ZaNAQpa7wGV4CcH/Px1B
lpc_rms=-24.61
sample=Flute_sustain_PP_D5.opus
tune=+1
</region>

<region>
hivel=127
key=D#5
loop_end=258428
loop_mode=loop_continuous
loop_start=109167
loop_xfade=18993
lovel=0
lpc=Rb0UQrOHicLMlA9CblzGwAs/TUA3pU9BbQIRwf8KZ8D1L7M//1bTwKtKPEFYHZ7A0ZqtQD1yzsBiUTVAORyEwM4GXkCMg25AhyXtPJk/tL+WoeI+RPYKwG4knsDp4/tA
lpc_rms=-23.65
sample=Flute_sustain_PP_D#5.opus
tune=+2
</region>

<region>
hivel=127
key=E5
loop_end=250539
loop_mode=loop_continuous
loop_start=105834
loop_xfade=18413
lovel=0
lpc=0GM1QgiskcKIjpBBqDkVQeAdcUGOqzW/hY/7wJ43A8ETo61AMaq9v5Aa6UBWHifAKY7dPwbvdsCr7JJAeRVUwOTNZ0Ch14rAZtamQOdFqz9aFfA74UWPwM5xGMCcsuJA
lpc_rms=-21.39
offset=5795
sample=Flute_sustain_PP_E5.opus
</region>

<region>
hivel=127
key=F5
loop_end=265838
loop_mode=loop_continuous
loop_start=112297
loop_xfade=19537
lovel=0
lpc=B/8EQr2FdMInjP9BIVFYwGfzIUGvuw3AFM4awTobqUBbySfARktcQC2pjkBYwMrAkwK9QEA18cAgjLxA1mhDwN/BtUCRzde//pbpv45Qlr+MJy5ArPkiQMq/k8CcRn1A
lpc_rms=-23.85
offset=15556
sample=Flute_sustain_PP_F5.opus
</region>

<region>
hivel=127
key=F#5
loop_end=258727
loop_mode=loop_continuous
loop_start=109293
loop_xfade=19015
lovel=0
lpc=w8JaQszKpcLsaQJCLL3swGKZykE72InAMJbtwE1sAMGIvTVBW/NlQIwwKsCrOMC+lZlKQBmKpMAprj5B2KQDwQY2fEA6fJi/YtMBQWLS9cCVR05AZqPOPxvwfr3xC5FA
lpc_rms=-21.41
sample=Flute_sustain_PP_F#5.opus
tune=+1
</region>

<region>
hivel=127
key=G5
loop_end=252649
loop_mode=loop_continuous
loop_start=106725
loop_xfade=18568
lovel=0
lpc=zRwFQjdqBcLBbSDBuPM3QYJNIEFVKwBAiVQEQM5TCMFoN3a/zhIkQLVwkEDJOJs/GomqP948TL6yrF/A4WBRPXTYAED2uvZA9wuKvAP958DZsnm+XWixQDIjvkDSZX/A
lpc_rms=-22.34
sample=Flute_sustain_PP_G5.opus
tune=+3
</region>

<region>
hivel=127
key=G#5
loop_end=251003
loop_mode=loop_continuous
loop_start=106030
loop_xfade=18447
lovel=0
lpc=GP8dQqRAS8LFe6pBoKbmwIqzKUFOdAjAkHkHQDym0j9Ju5pAbZfIwCYDeEA049HAI13+QD1rBT7CYURBLQT9wK9ohL/MQITAr//XQGLaXz+BWBNAT618QNcv2D4FCgLA
lpc_rms=-21.99
sample=Flute_sustain_PP_G#5.opus
tune=-1
</region>

<region>
hivel=127
key=A5
loop_end=250782
loop_mode=loop_continuous
loop_start=105937
loop_xfade=18431
lovel=0
lpc=R65YQvWwg8Lx6IdBaAucQPTG88CAV8pA7uDHQItXAEBLRJBA9IV/wR5x2L91IqZAXQbvQKYDrj78HKdALxKWwEqmlcD9nhTBgJ4nQVuP8kBUSco/tfR4wCKewkBWO1bB
lpc_rms=-20.13
sample=Flute_sustain_PP_A5.opus
</region>

<region>
hivel=127
key=A#5
loop_end=256730
loop_mode=loop_continuous
loop_start=108449
loop_xfade=18868
lovel=0
lpc=pWDJQWitzcE4nKVAwX9WQGA8TsB8+05ACD4VQOgbj71OMBM/Lpg3wCrs/b4wbAdAHHNLQBg+p7+73G1AKylywGmTrL8mN5U/XwY/QJy1kD5vrMQ/6UWivpGasz9lU8/A
lpc_rms=-23.81
sample=Flute_sustain_PP_A#5.opus
tune=-1
</region>

<region>
hivel=127
key=B5
loop_end=257683
loop_mode=loop_continuous
loop_start=108852
loop_xfade=18938
lovel=0
lpc=MpgIQoMK1MGXG1NA853bQP9itr9UNSdANhGov9W8LD+1Z6BAPWunwFMxfUDCirM+CBMwQPkxg74cYII/2uv4v0d9R0BWVg1Ay0+qv8bc0j/bl4Q/QfA0QNwaPD9yLFXB
lpc_rms=-24.64
offset=5048
sample=Flute_sustain_PP_B5.opus
tune=-1
</region>

<region>
hivel=127
key=C6
loop_end=273713
loop_mode=loop_continuous
loop_start=115623
loop_xfade=20116
lovel=0
lpc=Fi4cQsMm68HYwYlBDYYBwTRCQUDhuoNA/WnOPy1klsDjePVA8KMWwUdJI0FdjGDAwR+JQI3AEr/hyjXAwWGQQNTFKcDGtJ9An6HeP1FUI8Bu9se+CQa8QL+UgsEMMqjA
lpc_rms=-22.91
offset=6876
sample=Flute_sustain_PP_C6.opus
tune=+1
</region>

<region>
hivel=127
key=C#6
loop_end=265952
loop_mode=loop_continuous
loop_start=112345
loop_xfade=19546
lovel=0
lpc=AvxAQoAuCcKchprA+5POQGlZtcDkK0dASaisPd1+bL9tzApA7MGLwMM2r0A4HGXAiORNQBz8RcDPMs8/EjRvP2Gnkb820Z++obcUQPib5L5quXA/1kq2wZvKUcEZMLZB
lpc_rms=-21.95
sample=Flute_sustain_PP_C#6.opus
</region>

<region>
hivel=127
key=D6
loop_end=279060
loop_mode=loop_continuous
loop_start=117882
loop_xfade=20509
lovel=0
lpc=+HAgQnwF5MFUpZU/mPPDv8uF0LzAtFhAWu7vvycA4j8tQgK+0qqdv72br0B3UorAcollQBdF9b/yNidAIjaHv1Rd/T9NamW/4+4yQKPUvr8RQKjBbUWSwPBei0H1ll+/
lpc_rms=-21.60
offset=48626
sample=Flute_sustain_PP_D6.opus
</region>

<region>
hivel=127
key=D#6
loop_end=271145
loop_mode=loop_continuous
loop_start=114538
loop_xfade=19928
lovel=0
lpc=8fXEQWqpWcGMZKO+8CbPP59DXcAj12O/jB+gQL5CTcBPWSlAe6Snvwq4BkDcGlQ/1Sy8PqZQFL8BM8w/9wcOvoskQkAUR5+/pNkxv51ibcF8F+U/s1m8QIPSrL/qm3VA
lpc_rms=-25.74
sample=Flute_sustain_PP_D#6.opus
tune=+1
</region>

<region>
hivel=127
key=E6
loop_end=271819
loop_mode=loop_continuous
loop_start=114823
loop_xfade=19977
lovel=0
lpc=6gP6QdpbWsFQoaHA216dv3g0CMAxI4pA56ZRQFZQKcDNfYNAMGE1wFS4jkCGjwLA2KQwQFVwrr+akxpAWlShvtIZXUBNz2/AJW6VwXnI8b96SV9BGZGavipQlkAY753A
lpc_rms=-25.16
sample=Flute_sustain_PP_E6.opus
tune=+1
</region>

<region>
hivel=127
key=F6
loop_end=253446
loop_mode=loop_continuous
loop_start=107062
loop_xfade=18627
lovel=0
lpc=PPZSQlwz5ME5gSDBs5qQwPJihz+iMCBBWNelQJHowT7lizNAs2wfwIdWoEC2nCjANYdgQIJ1n78aIzo/rgTCQAeO58C2NQvCkjzKQGlgpUHmfb5AD3OMv950r8CkPezA
lpc_rms=-18.70
sample=Flute_sustain_PP_F6.opus
</region>

<region>
hivel=127
key=F#6
loop_end=260283
loop_mode=loop_continuous
loop_start=109950
loop_xfade=19129
lovel=0
lpc=RIkIQjQ1N8Fge0/BbFE+wB0uI0AkVu1AUS9hQGzEar5hF4RAA/QtwMWVU0A4hynA8jqJQMoKEMAvKltABfAjwEGlucFMPQ+/VKddQZs18kDlacG/04/GwAT1TMCY6da/
lpc_rms=-21.70
sample=Flute_sustain_PP_F#6.opus
</region>

<region>
hivel=127
key=G6
loop_end=261469
loop_mode=loop_continuous
loop_start=110451
loop_xfade=19216
lovel=0
lpc=3ySZQhIUGMI17eLAS5SfwQIeQkHsoN1B5dwuQcylqcCRHHtBuJ3YwIvsNkHfU3bAoKn8QItllD9pEgVBYcVXwtzCDsBHNPdBplV2QZuRe0ASQajB4gGOwXPt/UBREK3A
lpc_rms=-15.49
sample=Flute_sustain_PP_G6.opus
tune=+2
</region>

<region>
hivel=127
key=G#6
loop_end=267406
loop_mode=loop_continuous
loop_start=112959
loop_xfade=19653
lovel=0
lpc=p0AxQl4hlcFjOk/BsMqmwKadPD8ZAZdAigwjQeVbjEA1SlE/h87Fv5UFBkAouuK+2WurQEYW6sAlYY7BXb59wTkinEF72jxBG/SrP9mjdsCK1f7ABqnOwPDWND5sNYm/
lpc_rms=-18.88
sample=Flute_sustain_PP_G#6.opus
</region>

<region>
hivel=127
key=A6
loop_end=267824
loop_mode=loop_continuous
loop_start=113135
loop_xfade=19684
lovel=0
lpc=sbNKQjwxV8FroI7BaG4IP/q8dT+soGtBY8alP+Ekij8xNoJBH6U2wZqAw0BRwR/A2PsOQZdk8MGi6K3BDgNyQcTFXEG1fvY/3L4dwdHyBsFlK0dArTBDwZpskD4OUcE/
lpc_rms=-17.01
sample=Flute_sustain_PP_A6.opus
</region>

<region>
hivel=127
key=A#6
loop_end=267417
loop_mode=loop_continuous
loop_start=112963
loop_xfade=19654
lovel=0
lpc=vUIUQhT8mcFFYyzB5K7JwPZOZUATfyNAFj8oQW6kxj914Xa/CAapv8bxt0CKJ1s9a+VKwSSrh8FRGBNBxphPQUxQxkCgkovA5dzdwOT/Y8BBdjXAy6omPlVtgL94n92/
lpc_rms=-17.87
sample=Flute_sustain_PP_A#6.opus
</region>
</group>

<group>
amp_veltrack=0
ampeg_attack=2
ampeg_release=0.35
group_label=MF
lpc_hicc1=84
lpc_locc1=43
volume=-4

<region>
hikey=D4
hivel=127
lokey=C4
loop_end=261899
loop_mode=loop_continuous
loop_start=110633
loop_xfade=19248
lovel=0
lpc=nJL8QUFCrsJKC7dC5ipMwuuvrUGdKhPAlNzFwG7UtL77YkVATLtDwABnr0AO34HAiTCoQB1CC8Fz9/RAcnz5wFb6G0EcourAJ8KeQJO7scCyCJVA8TlGwJMetD/K5dA8
lpc_rms=-24.63
pitch_keycenter=D4
sample=Flute_sustain_MF_D4.opus
tune=-1
</region>

<region>
hivel=127
key=D#4
loop_end=260555
loop_mode=loop_continuous
loop_start=110065
loop_xfade=19149
lovel=0
lpc=k8s4Qq8l88JJduJCpQZPwikZwkHTRIrAcIY8wGJ6VcHZyEJBW//TwDoWNEGJhu7AXoHUQPviAcG9wYpAKvhYwOrDcUC0NYjAJ2qSQKGQgr85tc29UixBv0Nm7b/9zv4/
lpc_rms=-22.58
sample=Flute_sustain_MF_D#4.opus
</region>

<region>
hivel=127
key=E4
loop_end=261171
loop_mode=loop_continuous
loop_start=110325
loop_xfade=19195
lovel=0
lpc=+LkQQifyxMIr5bxCzb8Uwk0fDEFOVZxAFQihwbPXekHsXqzAEvm5P9j7DT8A4hvAXs4HQQNvOcFslQlBNF34wHoI3kA/8iHA77XLP7V5JMCE3xq8zDWlP6iL6j6aaD2/
lpc_rms=-21.74
sample=Flute_sustain_MF_E4.opus
tune=+1
</region>

<region>
hivel=127
key=F4
loop_end=270099
loop_mode=loop_continuous
loop_start=114097
loop_xfade=19851
lovel=0
lpc=wfHGQeXeb8I0nDZCiEsVwURsk0CUhKbAhlTFv9PLG8AUJPJAXbDjwG4a2kDG1sXA/dTOQKu5q8DyBo9AcBuRwJssbUCuW5TAeTGCQEjeWb8TZxFAnyagwNvSSECCgfC+
lpc_rms=-23.08
sample=Flute_sustain_MF_F4.opus
</region>

<region>
hivel=127
key=F#4
loop_end=269150
loop_mode=loop_continuous
loop_start=113696
loop_xfade=19781
lovel=0
lpc=AIHAQafebMLwaUlChuRrwXM5rMCAF2JB5sQ3waaMS8C46ElBars7wXJJ4EBj6UvABWz6QAASKcF61oNA69f8PuhdJsAmujhApeixP/+tvMDZTHZAqZKwQDR5FsE+eXdA
lpc_rms=-21.15
sample=Flute_sustain_MF_F#4.opus
</region>

<region>
hivel=127
key=G4
loop_end=266287
loop_mode=loop_continuous
loop_start=112486
loop_xfade=19571
lovel=0
lpc=nZC1Qd1yaMKmZUVC01kPwRIl3MDuiqRAhVuQwHtCsL/hTgFB8/cHwa1QxUBPMovAxynBQLorBsHHQshAQW5CwIRpUkCJvknAW+QMQM8yQMBegFNA6w0awLRQA0AyyoK/
lpc_rms=-19.71
sample=Flute_sustain_MF_G4.opus
tune=+2
</region>

<region>
hivel=127
key=G#4
loop_end=267479
loop_mode=loop_continuous
loop_start=112990
loop_xfade=19658
lovel=0
lpc=oLOiQQ3IRMKADCJCXT9XwZ5sqUD+wu89epyawE16A8BpT49AFE0svyoj1D+nSD2/cMjgPwxX8cAiP95An7O+wCr98UCTlonAeNxjQHFuX8B9KyHAYhRoQL2SBz87djO/
lpc_rms=-20.95
sample=Flute_sustain_MF_G#4.opus
tune=+2
</region>

<region>
hivel=127
key=A4
loop_end=266297
loop_mode=loop_continuous
loop_start=112491
loop_xfade=19571
lovel=0
lpc=ue/OQfi+isL3UoNC03TDwV+ozUCMXETACdpZwAu3F7/N69xA8z2IwCGnhkDfqyLBMCMnQfnhPMBi4Ow/22vCwAuYlkD6po3AB6/FQGPKCcCeDna//4YawOhTmECkM/+/
lpc_rms=-20.25
sample=Flute_sustain_MF_A4.opus
tune=+1
</region>

<region>
hivel=127
key=A#4
loop_end=272297
loop_mode=loop_continuous
loop_start=115025
loop_xfade=20012
lovel=0
lpc=4UziQcN6jsJ3A1lC5c9EwA7h48CcHx5AO9jewBcioL+fxxdBNMNWwAkv9b3Rj0XAcwBwQKu/D8D7jQNAQOQ+wKjIrEDMQ7zAqG82vElVhkDBTRfACEiDQBj7wMCRFCJA
lpc_rms=-18.32
offset=10790
sample=Flute_sustain_MF_A#4.opus
tune=+1
</region>

<region>
hivel=127
key=B4
loop_end=259048
loop_mode=loop_continuous
loop_start=109428
loop_xfade=19039
lovel=0
lpc=zKCmQYFaSsLBaypCO4hBwWzOwL8Mt6NADlO/wEeJB0BIPTC+VbO9v/s6qUC9ArzAqH+jQI/xW8BhFytAWn5OwL98yz+ij5y/U/hhQBMG1b+uALK+6Jbrv/8KhD+WR1A/
lpc_rms=-19.42
sample=Flute_sustain_MF_B4.opus
tune=+3
</region>

<region>
hivel=127
key=C5
loop_end=275023
loop_mode=loop_continuous
loop_start=116177
loop_xfade=20213
lovel=0
lpc=1Qf7QTx+msIehYBCAgqJwesHa77XAw1AH1qTwGEW+z6ojnRAW0RdwIsNVUC/O5LA+vwDQUb6IcGeVQVByqDrwMHNl0AFaoG/Hfv/P9OXSsDyHkBAoXAsP195zsAqiJdA
lpc_rms=-16.75
offset=9786
sample=Flute_sustain_MF_C5.opus
</region>

<region>
hivel=127
key=C#5
loop_end=268231
loop_mode=loop_continuous
loop_start=113307
loop_xfade=19713
lovel=0
lpc=TvCiQY/mRsI7hSdCjt44wadL2b5uoxNA85uCwCC8oT98DhVAxKJbwIwzhUCAlinAm5joPywkIMCqypY/dTKMv5QCM0BXq6O/QhSYPisl6L/nQPk/l6R4QG8wEcFThaRA
lpc_rms=-19.54
sample=Flute_sustain_MF_C#5.opus
tune=+1
</region>

<region>
hivel=127
key=D5
loop_end=263804
loop_mode=loop_continuous
loop_start=111437
loop_xfade=19388
lovel=0
lpc=yxuZQSCAJMLfgOZB42MzwHKn1sBxrMJAyQuDPKb/ncBsmllAAZsIwNUabEBRlRHANtwrQOIAgMCeMO4/VLeKv1m1EED09BXAfyOFQPJQYcBg4R5A1HOLv1U9Z8A6T35A
lpc_rms=-19.55
offset=5075
sample=Flute_sustain_MF_D5.opus
tune=+1
</region>

<region>
hivel=127
key=D#5
loop_end=253593
loop_mode=loop_continuous
loop_start=107124
loop_xfade=18638
lovel=0
lpc=Sa7NQY5ALcJS0PpACGudQRl/mb+DCP7AHIHxP81xksDQcNFApCGsv3xhWj7euNS/EpZOQOFpk8CB00tAW6Btvs4yHT80v4G+SFzbP9/0/b9ytWdAeG5hwPoGH8B7opJA
lpc_rms=-17.65
offset=3818
sample=Flute_sustain_MF_D#5.opus
</region>

<region>
hivel=127
key=E5
loop_end=254773
loop_mode=loop_continuous
loop_start=107622
loop_xfade=18724
lovel=0
lpc=Xd+yQYafFsIIdX1BuRqLQEZC67/MToA/VlyPv3rmJ71b7MI/KMv+vxM3QEA2wYTAed+dQLxBY8AJ7kJAY8o6wA1uNEDxUnw/S/7svpJ/6z0Zmga/JHxrPqX/GMDdI4BA
lpc_rms=-18.42
sample=Flute_sustain_MF_E5.opus
tune=-2
</region>

<region>
hivel=127
key=F5
loop_end=259380
loop_mode=loop_continuous
loop_start=109569
loop_xfade=19063
lovel=0
lpc=6ErPQbZoJ8L5PHhBWWvTQBnDoT7Dl0I+HJ1MwP4hhj+Gfps/YS4dwH4amUDAIz/ANQeYQPLZmMDzWzZAj+efv7ZsTkDRlAvAQwx2PwG66D9IwM0/CQsNwBtnmcCkautA
lpc_rms=-15.19
sample=Flute_sustain_MF_F5.opus
tune=-1
</region>

<region>
hivel=127
key=F#5
loop_end=279060
loop_mode=loop_continuous
loop_start=117882
loop_xfade=20509
lovel=0
lpc=1hCiQRc+6MGU9RJAKSNRQVKhBsCinHC/kYrJv4B8GcDJ26NAqmdNwHDHKEDQqzzAJWsjQL8A9r/hiSZA4w4hQN49u78IyPq/NrP/PreqHb69tHY/yKIUPtC+Gz/LAdG+
lpc_rms=-15.71
offset=11999
sample=Flute_sustain_MF_F#5.opus
tune=-5
</region>

<region>
hivel=127
key=G5
loop_end=266220
loop_mode=loop_continuous
loop_start=112458
loop_xfade=19566
lovel=0
lpc=ImbOQWvMBcLUABZBoEfEQKuhiD/Aw5W/O2QTQDxQOMANqrFA3FoWv2rmpr9FSwM/ETp+P710iT9RCEZAn28tQEUnV8BKok8/SbRgv2PliUCGoJu/fdEEQIvjab5v8i5A
lpc_rms=-13.33
sample=Flute_sustain_MF_G5.opus
tune=-8
</region>

<region>
hivel=127
key=G#5
loop_end=255971
loop_mode=loop_continuous
loop_start=108129
loop_xfade=18812
lovel=0
lpc=/fiUQRF7kcHXqeK/8AcHQctwjz8+cLa+VEMRQPrQLcAYyHpAIXB0v+0+7j9twyHA3nt3QGMOzL22nkxAcvA8P1EEGcA+F64+hTUCQPV/7z9T6rm+IG2oPy1CzT9H0Ps+
lpc_rms=-17.21
sample=Flute_sustain_MF_G#5.opus
</region>

<region>
hivel=127
key=A5
loop_end=261687
loop_mode=loop_continuous
loop_start=110543
loop_xfade=19232
lovel=0
lpc=LOyQQdwTo8HFPGVA8DyWQPAcxD+ttx0/af/wv3UeI75/1J5AdycMwK+8az/1Iz7AJ2+gQNKjez/hj+M/toV7wLjucz+oO/g/iNU5QGUpA8BaM3y+DeEKQEbujkADS5TA
lpc_rms=-16.37
sample=Flute_sustain_MF_A5.opus
tune=-5
</region>

<region>
hivel=127
key=A#5
loop_end=264622
loop_mode=loop_continuous
loop_start=111783
loop_xfade=19448
lovel=0
lpc=35fJQS3MxsHOlK9AYHO8QB18MMAp9p5A9sHhvsgqBj4p7mFAdUarv5jjBL6PA7c+vKbfQDZKET3g/FO/gpTuv0hJT0CQ/ng/rYsaQF8LRz+yLLM/JWxaP9ByJEDuoJbA
lpc_rms=-15.11
sample=Flute_sustain_MF_A#5.opus
tune=-6
</region>

<region>
hivel=127
key=B5
loop_end=270965
loop_mode=loop_continuous
loop_start=114462
loop_xfade=19914
lovel=0
lpc=XV7zQTnS9cEMPVlBiFcBvuKLzL+66XBANPHjP8W0dsAr5aNA0U8owN2FHECKQbi/zljfQK5/fcBXRV0+sH19P1ONIkDCTru/7SY0QLrCmz8juKe/R5KIP5nCgUDKyDfB
lpc_rms=-12.22
sample=Flute_sustain_MF_B5.opus
tune=+3
</region>

<region>
hivel=127
key=C6
loop_end=277317
loop_mode=loop_continuous
loop_start=117146
loop_xfade=20381
lovel=0
lpc=73fZQQk+7MF5n4tAnEvbQIPsnr9M4iFASdKVv6nAjz9GFghAZTBRwCRHtz/jZLpALKgaQEoZ5sDQZ4A/6tOfQBCvrD9Co9y/wPgOQMWear5XhBpAoDoqwCnYGMHCPgRB
lpc_rms=-14.10
offset=13770
sample=Flute_sustain_MF_C6.opus
tune=-4
</region>

<region>
hivel=127
key=C#6
loop_end=265482
loop_mode=loop_continuous
loop_start=112146
loop_xfade=19511
lovel=0
lpc=1JS+QejRjsHRHMC//O2OQB75uL4wOJtA8KeSP6mlSD92ahVAFBkbv8rGwUA9+Kw/L8b2P+KywL4JR/g/7qhaQPQM0z9u5e0/82i8P0eaxj+XCBhANFrswHe4g8Df2z9B
lpc_rms=-17.85
sample=Flute_sustain_MF_C#6.opus
</region>

<region>
hivel=127
key=D6
loop_end=268649
loop_mode=loop_continuous
loop_start=113484
loop_xfade=19744
lovel=0
lpc=qm+vQX2bR8G/dYXAXOtiQOh007/s9o4/aZM7P7l2f7/LGq0/0rR/vx+lCEDZfba/guK1P7WV+b5BouY9kbLMP27hrL+IyZo/rcgoPxnB8L7Q7j3Bfs2JwFBsNkEXfMu/
lpc_rms=-19.25
offset=13746
sample=Flute_sustain_MF_D6.opus
tune=+1
</region>

<region>
hivel=127
key=D#6
loop_end=265309
loop_mode=loop_continuous
loop_start=112073
loop_xfade=19499
lovel=0
lpc=dQWgQSzhLsELgjHAWeb0P1tc5z/7Gm6/+zlMQLwjAMDUVUFAm77iv1PyN0D9i3+/ZA4BQPygZbyNe0M9xevrPzUaDL/bpxRAdgxpvzUMRsEXqHc9UiQJQYHpDL/xIKe/
lpc_rms=-16.42
sample=Flute_sustain_MF_D#6.opus
tune=+1
</region>

<region>
hivel=127
key=E6
loop_end=268817
loop_mode=loop_continuous
loop_start=113555
loop_xfade=19756
lovel=0
lpc=qzkmQo/p28HIUkXAx/zrv4UEMT/IuiVBENFjQIQ7M8CFKshAHGlbwB9YwUBSbd2/UqlpQH/eTb9utGxA1K2Uv/dPmkB3sSi/qkv3wT6DJUHrNo1Bh5QcwCfEr0BMJDXB
lpc_rms=-13.16
offset=14166
sample=Flute_sustain_MF_E6.opus
tune=+1
</region>

<region>
hivel=127
key=F6
loop_end=269628
loop_mode=loop_continuous
loop_start=113897
loop_xfade=19816
lovel=0
lpc=Cjn4QdI1kcHN7xW/nDMoQBDCM0DWZ8lAiVmhP+RK7D+fsoBAkM3ave8vuEA6JWO/ElWXQONH9T80YMc/XX+bQKjG57/4NpzBd2oJQR8FIUEgjiK/pd4pwBqkyr9L3iA+
lpc_rms=-16.89
offset=8050
sample=Flute_sustain_MF_F6.opus
tune=-3
</region>

<region>
hivel=127
key=F#6
loop_end=252714
loop_mode=loop_continuous
loop_start=106753
loop_xfade=18573
lovel=0
lpc=goHxQSEVLMER0C/A9q83QCivF8BWJ/JAEnu8QEAhkT8NVbZAc/+KP63erkCHPzI//dKVQODc0D8+HJ1Aym8fP+U4lcEesRFA25EhQX+jCUBr7hNApZWiv7p7fMCEY8a9
lpc_rms=-16.17
sample=Flute_sustain_MF_F#6.opus
tune=-1
</region>

<region>
hivel=127
key=G6
loop_end=253911
loop_mode=loop_continuous
loop_start=107258
loop_xfade=18661
lovel=0
lpc=uCuRQpGf9MEKxI3BCP8WvlW8JEE90itBY0yjQV8kCj+nZjdBrlAuQJdEu0BSnQlAy+TwQN0dHECB3yBBMTJSwuJGgb+HGhZCtuzOQEbrAMDy2AbBOrI/wVBn2r+sRoTA
lpc_rms=-7.78
sample=Flute_sustain_MF_G6.opus
</region>

<region>
hivel=127
key=G#6
loop_end=266877
loop_mode=loop_continuous
loop_start=112736
loop_xfade=19614
lovel=0
lpc=/OYoQqL3jMHlDezA0CFOv86tiEBG34NAkhwuQVrLVECGie1Ahbe6wJRX2kA8NIw/UtcoQB7Z4UBgysrBcSAgwURDsUHW9FlAoS7iP4bZy7/5ItPARNYNwFN6nMCekJ1A
lpc_rms=-10.98
sample=Flute_sustain_MF_G#6.opus
tune=+2
</region>

<region>
hivel=127
key=A6
loop_end=257377
loop_mode=loop_continuous
loop_start=108722
loop_xfade=18916
lovel=0
lpc=8K6HQohl7cGUbcPArBfZP2fcIUBH7YxBP7ydQeE84kBUuxVBnHo9wE1VEkEUvntApiaHQWxr68Fna8TBemf/Qe/EGUGuB+ZAc4phwLygKsF3wRDBlZUFwCwWlkBsy4FA
lpc_rms=-9.40
sample=Flute_sustain_MF_A6.opus
</region>

<region>
hivel=127
key=A#6
loop_end=260019
loop_mode=loop_continuous
loop_start=109839
loop_xfade=19110
lovel=0
lpc=3ONjQjTousFyYUHBqsr4Pz+U+r0s+Q1BSZ2GQZ0fVD/sHY++dT4cQIde+j/A10lAbKpbweGkDMIsbIJBmYBjQS/+MEBGYn6+3CNZwfDOysDS+yS/ovI8wBHibUAaOe69
lpc_rms=-7.65
sample=Flute_sustain_MF_A#6.opus
tune=+1
</region>
</group>

<group>
amp_veltrack=0
ampeg_attack=2
ampeg_release=0.35
group_label=FF
lpc_hicc1=127
lpc_locc1=85
volume=-4

<region>
hikey=D4
hivel=127
lokey=C4
loop_end=252532
loop_mode=loop_continuous
loop_start=106676
loop_xfade=18560
lovel=0
lpc=Z3MyQmoJ+cKt/PlC1QxawtWWi0ENzgTBFvgRvzVl8b/D7NxAx+pOwYC6iUE9GijBuyovQfxJk8EhhndB+pghwUER30DzMBXAH68nQKysK8AtwHY/T8M1wHp5E0Dy0Ay9
lpc_rms=-20.40
pitch_keycenter=D4
sample=Flute_sustain_FF_D4.opus
</region>

<region>
hivel=127
key=D#4
loop_end=254717
loop_mode=loop_continuous
loop_start=107599
loop_xfade=18720
lovel=0
lpc=ugQyQpFK9cIvsQJD8Aacwm+0JEJmdJrBFazOQOBohsAlknVA7YWywHBDrUA6sRbA4d6cQC3WEMGR2h5BwYgQwXXb+ED09lbATpL3v4ArFkB/uxDA3B07QKvAnL+JJ08+
lpc_rms=-20.46
sample=Flute_sustain_FF_D#4.opus
</region>

<region>
hivel=127
key=E4
loop_end=261109
loop_mode=loop_continuous
loop_start=110299
loop_xfade=19190
lovel=0
lpc=8FwYQgjlycLCUL9C3cMpwmpvJ0GQ0ylBvYxmwXRQsL/ZgQVB9cwywTYzdEF8TzfB3ccfQcOnUcF3Ou1AGPxhPvQ6/T/lToTAzeGVQA4b/sBFqOJAxAFrwJJA0z+M9W++
lpc_rms=-20.23
sample=Flute_sustain_FF_E4.opus
tune=+1
</region>

<region>
hivel=127
key=F4
loop_end=275329
loop_mode=loop_continuous
loop_start=116306
loop_xfade=20235
lovel=0
lpc=TMfVQbADiMKkGl1CB2Uzwf5rNkAT0afAbJ6VwHuSekAYnoNARGfuwCOtAEHAAtPAZnDqQBaV3sBNw8U/L4pGv1NrvUAf7ebAYPinQCvlXsBIYRZA+sM1wOiRPEBjOZS/
lpc_rms=-20.07
offset=16253
sample=Flute_sustain_FF_F4.opus
tune=-2
</region>

<region>
hivel=127
key=F#4
loop_end=256341
loop_mode=loop_continuous
loop_start=108285
loop_xfade=18839
lovel=0
lpc=tyXwQQjFncIAx5dCcXYawv0XuUGRYQDBFQcDwX1+T0BGirM/g6eMPRIKz0AO07rAJDwFQDISGcGnmC9BfmWmwM/ExUCHZZHA1NA6PmcA2L6anXM9u0WRPzDaxz331vS+
lpc_rms=-17.68
sample=Flute_sustain_FF_F#4.opus
</region>

<region>
hivel=127
key=G4
loop_end=255361
loop_mode=loop_continuous
loop_start=107871
loop_xfade=18767
lovel=0
lpc=OBDcQcnmksJ+w5BC5REFwkUkFUHgJ0lAedQgwYAlwUAh8UPAnjZxQAe3jL4nSmXA+z9xQJJIksAiKvRA2UzPwCReNkA8naS/lsVbP2rPFMA/GX9AdnsPwNK0v74LZDQ/
lpc_rms=-18.22
offset=10545
sample=Flute_sustain_FF_G4.opus
</region>

<region>
hivel=127
key=G#4
loop_end=254771
loop_mode=loop_continuous
loop_start=107622
loop_xfade=18724
lovel=0
lpc=o9GyQfiracK08l1Cih3KwWtUSEFDatDAXSQ7v0d4BsBUO9lAp1/UwEDy1kDYkLfAzmKLQCZsj8AjOl9AbKbWvywUMEC5bonAodckQHqrK78EnMU+SmGhP6cWEcCBnH0/
lpc_rms=-18.60
sample=Flute_sustain_FF_G#4.opus
</region>

<region>
hivel=127
key=A4
loop_end=255940
loop_mode=loop_continuous
loop_start=108116
loop_xfade=18810
lovel=0
lpc=hobAQdb8cMKswVNCWpGBwao11L8ZhU1AK2vovw+DxL4lQDRAYH6fwHAt2kAl/OHAuj+1QFZwosATvaJAJvQKwBgqsj52sEbApLWqQP7bc8A4Jn9AOnR4wGtLF755gqo/
lpc_rms=-17.19
sample=Flute_sustain_FF_A4.opus
tune=+1
</region>

<region>
hivel=127
key=A#4
loop_end=263849
loop_mode=loop_continuous
loop_start=111456
loop_xfade=19391
lovel=0
lpc=9LuPQbgDLsJuEQ1CDv8cwWiaO0Bkh3m/wUEMwMPPKcA3RXtAo42/viRlPECK5LnAN6aPQPUmgMDGrrNAujptwEETob6yjTI/1MDdPjwpTb9ye1E/rbLOP+l6ecCNUQxA
lpc_rms=-17.92
sample=Flute_sustain_FF_A#4.opus
</region>

<region>
hivel=127
key=B4
loop_end=256373
loop_mode=loop_continuous
loop_start=108298
loop_xfade=18842
lovel=0
lpc=s16DQcSnG8KYXQRCSHd0wfPCS0GumBrBuNRVQGzDm8CiGwBBkdb1wDzc/0CQgu3ADSbXQNo528DQ6ZVANHIFwLFzVEDef1jA56ZuPj+2Fb/0kiVALJyIvSpE97/pqy0/
lpc_rms=-20.10
sample=Flute_sustain_FF_B4.opus
tune=+2
</region>

<region>
hivel=127
key=C5
loop_end=263832
loop_mode=loop_continuous
loop_start=111449
loop_xfade=19390
lovel=0
lpc=kjiPQapbMMIY5xZC0U06wbBG+j50RxxAXEYawEfOi79ppz5AcUy3wLsC80DnC6TABGnVQLlcFsH8FqhAfTYcwL+FeEAOtsi/45CvPs5YLsAAdQdAA+BePnD1P78/ado+
lpc_rms=-17.77
sample=Flute_sustain_FF_C5.opus
</region>

<region>
hivel=127
key=C#5
loop_end=260854
loop_mode=loop_continuous
loop_start=110191
loop_xfade=19171
lovel=0
lpc=v62zQXG4VcKI2ipC5BtFwSxAqkDmlZTAocn8P3zuwcANaQNBNH65wJ/T80C0AxPBMcrYQFSctMDBs7xArSQ1wLnmwb+LNH1A1MldwDW0fT8CRCc/gjiEQAcaE8FpPKlA
lpc_rms=-16.15
sample=Flute_sustain_FF_C#5.opus
tune=+2
</region>

<region>
hivel=127
key=D5
loop_end=264278
loop_mode=loop_continuous
loop_start=111638
loop_xfade=19423
lovel=0
lpc=wgt9QUvsFMKqTARCqch8wRlZC0E0KojAA3UWQEBrdsCM1NE/khqoPq5avD/HYgLAzxv7P7DuNMASS1FAcPAiv5IDiL/UxFO/SMSMP/ZrhD/GlgG/B2LVP2fjgsBQCypA
lpc_rms=-16.87
sample=Flute_sustain_FF_D5.opus
tune=+1
</region>

<region>
hivel=127
key=D#5
loop_end=267829
loop_mode=loop_continuous
loop_start=113138
loop_xfade=19684
lovel=0
lpc=rfKXQfvSIsKrae1BnvugwKfgh8DyGY9AQViSPcdagsDx2HFAFdVCwJN2AkB4fx4+DoAUQAoypMBcCaxAaHt2wN604D8PqYe/UlcNQEErzb/4wdE/Ea1Hv6sdDsAQSjNA
lpc_rms=-16.52
sample=Flute_sustain_FF_D#5.opus
tune=+1
</region>

<region>
hivel=127
key=E5
loop_end=260415
loop_mode=loop_continuous
loop_start=110006
loop_xfade=19139
lovel=0
lpc=WGXNQbbxJ8J4cJVBrYIdQMnktsD7MApBhOlpwDUir7/ZxX5AexZywB4ijEC2karA/iCjQJrXhcDVSkFAnzjLPnjCs76kgxpAdjpQP7LyPsCuwwNAVhsGwAhq5L/lHqlA
lpc_rms=-16.54
sample=Flute_sustain_FF_E5.opus
tune=-2
</region>

<region>
hivel=127
key=F5
loop_end=268184
loop_mode=loop_continuous
loop_start=113288
loop_xfade=19710
lovel=0
lpc=9BrIQSPbOsJnCuhBg2ZLwKkQWsBXQq5AP055P5Eb0cBSTK9AMTWbwMWApUDBiinADwrxQEKaJMFTPqlAny+ZvxAFLkB+X5q+K+QRQE4tssCFWaRAJKLPvxOKDcBihIpA
lpc_rms=-12.64
sample=Flute_sustain_FF_F5.opus
tune=+2
</region>

<region>
hivel=127
key=F#5
loop_end=257149
loop_mode=loop_continuous
loop_start=108626
loop_xfade=18899
lovel=0
lpc=8qDxQXFGO8J9LMpBWm6xvxFlgMBbagpBeWZ4v3LbpMCuscRAYxt7wF2ZqUAyFXLA5eDmQJZS5cBUa7ZA/ojUvrq+Fz9Fahg/GkBlQIbWlMC6Er9A41UJwEN0icCafQlB
lpc_rms=-10.75
sample=Flute_sustain_FF_F#5.opus
tune=-2
</region>

<region>
hivel=127
key=G5
loop_end=262178
loop_mode=loop_continuous
loop_start=110751
loop_xfade=19268
lovel=0
lpc=lFeTQedNycFzLzNB6lDBP2W4IEBZUnHAq4waQBwpej9Kwdw/Aq6+v6nhVECRaTrASp9lQPW2NcA2n6lAON61v/Vd9T+9ggrALFTeP4O5gT8Ebf8/ygxwv4kGlb9rHZJA
lpc_rms=-14.88
sample=Flute_sustain_FF_G5.opus
tune=-1
</region>

<region>
hivel=127
key=G#5
loop_end=259980
loop_mode=loop_continuous
loop_start=109822
loop_xfade=19107
lovel=0
lpc=+JDQQQK7CMIFG5VB4rGVvpN/uD++BOE/pvwdP/SyZj9PojJAVuWlv1TGy0A0NazAO9jfQMhrqL9C1CdAr0gVP4WROkAVPKS/pgo6QJU8LkC8jJy/ypUWQC1nvD5DPp5A
lpc_rms=-12.68
sample=Flute_sustain_FF_G#5.opus
tune=+2
</region>

<region>
hivel=127
key=A5
loop_end=268260
loop_mode=loop_continuous
loop_start=113320
loop_xfade=19715
lovel=0
lpc=Dj/gQUpM+8E6nlBBxhQ/QFd3fUBQv6o/fA8uwMBHjED8moc/Mlm6QDwvOcBCwo8/5J0xQBQ/rUBnZRq+C+nTvjwrgz+p6a1AaT8TQL9m6L+bEks/SLeAQM23zkDWhCrA
lpc_rms=-12.88
sample=Flute_sustain_FF_A5.opus
tune=-3
</region>

<region>
hivel=127
key=A#5
loop_end=254737
loop_mode=loop_continuous
loop_start=107607
loop_xfade=18722
lovel=0
lpc=8Bi6QaoyxcE3AEtBydalQLBYZsDg3DtAff2uQA26gsDBy+9Ak37mvwKGcUDUSum+GnqJQK4MsD+Qf6o/CJaMPw68bUDCxNA+L1zUPz1VYUBGy2A/l+QXv+y2GkHKtb3A
lpc_rms=-10.75
sample=Flute_sustain_FF_A#5.opus
tune=-3
</region>

<region>
hivel=127
key=B5
loop_end=271862
loop_mode=loop_continuous
loop_start=114841
loop_xfade=19980
lovel=0
lpc=lST3Qd/DFsItlXZBQC2gQMD2tsCO9YtAgGuOP5BtY8BJnM5AEH6jwHYqwEDRt8XAyWcZQRSqzcCXM3pAN3mav5ICTEBQPy3AmxaNQOykq79Jr4M/gXaMPymYzr/8yZLA
lpc_rms=-6.37
sample=Flute_sustain_FF_B5.opus
tune=+1
</region>

<region>
hivel=127
key=C6
loop_end=260651
loop_mode=loop_continuous
loop_start=110106
loop_xfade=19156
lovel=0
lpc=FhDPQXuA/8H1zntBNFkmwL3IOj9/ClhA5h/1vj9F+D954Ve9fnwhQLRLUMDR1tRACsDyP0hMqsAngJFAzBmBP4LYzD8ew6U+z80LQH9OL78VrghAxvEbQLuVcsGPey5B
lpc_rms=-11.15
sample=Flute_sustain_FF_C6.opus
tune=-5
</region>

<region>
hivel=127
key=C#6
loop_end=257945
loop_mode=loop_continuous
loop_start=108963
loop_xfade=18957
lovel=0
lpc=77bIQe0YgsGnPeu+lINhQCR+6T5hZ31AFhLiP5WgR0Axwi9AJB6AP/jxe0CqaeI/76h6QI+wfj+97lRADk8aQGX+JUCGdxJACCFYQKH/sz979F1AADUnwcaFgcA+hmpB
lpc_rms=-13.61
sample=Flute_sustain_FF_C#6.opus
tune=-4
</region>

<region>
hivel=127
key=D6
loop_end=277166
loop_mode=loop_continuous
loop_start=117082
loop_xfade=20370
lovel=0
lpc=mxGiQYwnK8H1JOC/6Dc0QNniAj9JKz9AQxrCP0nU6z9OfStAjRTkPzao4D9EOuY/5DI5QKlyoj8Cm/M/dZEYQHSh2D+QpxhATvnwPw9XHUASKQjBqdiKwKyaHUEhiNw/
lpc_rms=-14.71
offset=32528
sample=Flute_sustain_FF_D6.opus
tune=+3
</region>

<region>
hivel=127
key=D#6
loop_end=258719
loop_mode=loop_continuous
loop_start=109289
loop_xfade=19014
lovel=0
lpc=ymNMQfMnqcCB1se/ee/2PzXn/D9EjMm8d4QaQLRUKD8fFwhAXRoMPvDm5j8m9Fc/HTrwP29SFz8PxNk/pO1UP+Gv2z/089c/Wq6/vrWN1MAHHFU/E/V9QA/qOj9tLUu/
lpc_rms=-18.09
sample=Flute_sustain_FF_D#6.opus
tune=-3
</region>

<region>
hivel=127
key=E6
loop_end=257016
loop_mode=loop_continuous
loop_start=108570
loop_xfade=18889
lovel=0
lpc=zeOwQTf9RsFVWnrAzT1JQD2qUr5us6Y/Y/9WQIKKUL8ZUn1Add60Pn7yOEBs+c0/gEnMPzU9FUBopwM/VRQ3QBqK6j/bLoU/HZlFwTh9gj6w2ktBCJwPv/6DGT8Ghkg/
lpc_rms=-16.50
sample=Flute_sustain_FF_E6.opus
tune=+5
</region>

<region>
hivel=127
key=F6
loop_end=263430
loop_mode=loop_continuous
loop_start=111279
loop_xfade=19361
lovel=0
lpc=0gftQRmWqcEB+SzACu6+QF4cib94XZFAm5nnP/8xiL9QTm9Ag/wRwDzoiUDgoybA/stWQM40Kr/y95w9msGGQCOZm8CHEY/B/LbrQEESOUGwtYrAIkARwLBxG74PmRXA
lpc_rms=-14.87
offset=5027
sample=Flute_sustain_FF_F6.opus
tune=-2
</region>

<region>
hivel=127
key=F#6
loop_end=257989
loop_mode=loop_continuous
loop_start=108981
loop_xfade=18961
lovel=0
lpc=ROjAQfGcgcG2gXXA1anWQOQTP8B6vqVA5DF9QL63CcCbnkZAkDoOwGk4NEDmXxzAV0LhPw1HAb6UeQq+7ikqPx4XjsEpUYNAwCQbQZz0YcDwkRe/JJIuwB1yccAt85y+
lpc_rms=-16.56
sample=Flute_sustain_FF_F#6.opus
tune=+1
</region>

<region>
hivel=127
key=G6
loop_end=239587
loop_mode=loop_continuous
loop_start=101207
loop_xfade=17608
lovel=0
lpc=G3QmQnWln8HJX2LAk6KTQI6AqD+c5gJARKZBQRU/Sb8p/hNBKNaQv76w8UByPgE+ZorVQLAhnb685CVB03H+wfFBKUB9FJtBH3sRwBd7jz+vZUtALYPbwBDGJj2e8JC/
lpc_rms=-10.76
sample=Flute_sustain_FF_G6.opus
tune=+1
</region>

<region>
hivel=127
key=G#6
loop_end=261095
loop_mode=loop_continuous
loop_start=110293
loop_xfade=19189
lovel=0
lpc=OLjYQdA7RsFrXFTA02onP01RMsDAi+dAwy6XQI91gj9O1DFA+ocSwAizSUDs9Ci/RPQUQJ8iM0BvP3vBh+fVwJHSREE+Jas/pkj1P6B3Rr29E9/AFhm/vliYhr8Tz84/
lpc_rms=-14.01
sample=Flute_sustain_FF_G#6.opus
tune=+3
</region>

<region>
hivel=127
key=A6
loop_end=249471
loop_mode=loop_continuous
loop_start=105383
loop_xfade=18335
lovel=0
lpc=IrBGQhc+tcFARPrAj7EtQfFkdr97ooBBgeXPQMUZT0AHAS9Br3WJv3Y0OEGOmIQ/8/RlQYntlcFJoanBXdsCQrhHB0DbI/g/ol7nPsdxBMGI9ldA6wkowLZ1EECJ1xM/
lpc_rms=-9.54
sample=Flute_sustain_FF_A6.opus
tune=+1
</region>

<region>
hivel=127
key=A#6
loop_end=265719
loop_mode=loop_continuous
loop_start=112247
loop_xfade=19529
lovel=0
lpc=GykcQlP1psF/OU++HUC7vx8nlEA2E+lAzxkeQcn+gEC4FmFA+MpHQPDERUBxkRNBB3mhwJ2ftsGDV7tBxNLBQLEJ00CN0Di+07IpwNZeS8DHVgxAijkmPyEyf0AJiqA+
lpc_rms=-12.64
sample=Flute_sustain_FF_A#6.opus
</region>
</group>